<svg width="21" height="24" viewBox="0 0 21 24" fill="none" xmlns="http://www.w3.org/2000/svg">
<path d="M10.2857 24C10.4418 24 10.5932 23.9468 10.715 23.8491C11.1182 23.5241 20.5714 15.8523 20.5714 10.2857C20.5714 7.55777 19.4878 4.94156 17.5588 3.01262C15.6299 1.08367 13.0137 0 10.2857 0C7.55777 0 4.94156 1.08367 3.01262 3.01262C1.08367 4.94156 0 7.55777 0 10.2857C0 15.8523 9.45326 23.5241 9.85646 23.8491C9.9782 23.9468 10.1296 24 10.2857 24ZM10.2857 6.17143C10.9638 6.17143 11.6267 6.37251 12.1905 6.74925C12.7544 7.12598 13.1938 7.66145 13.4533 8.28794C13.7128 8.91443 13.7807 9.6038 13.6484 10.2689C13.5161 10.934 13.1896 11.5449 12.7101 12.0244C12.2306 12.5039 11.6197 12.8304 10.9546 12.9627C10.2895 13.095 9.60015 13.0271 8.97366 12.7676C8.34717 12.5081 7.8117 12.0686 7.43496 11.5048C7.05822 10.941 6.85714 10.2781 6.85714 9.6C6.85714 8.69069 7.21837 7.81862 7.86135 7.17563C8.50433 6.53265 9.3764 6.17143 10.2857 6.17143Z" fill="#8F9DB8"/>
</svg>
