<svg width="26" height="20" viewBox="0 0 26 20" fill="none" xmlns="http://www.w3.org/2000/svg">
<path d="M3.15788 19.9999H22.1051C22.9427 19.9999 23.7459 19.6672 24.3381 19.075C24.9303 18.4827 25.263 17.6795 25.263 16.842V7.91784C25.2631 7.82373 25.238 7.73131 25.1903 7.65021C25.1425 7.5691 25.0739 7.50228 24.9916 7.4567C24.9092 7.41113 24.8162 7.38846 24.7221 7.39107C24.628 7.39368 24.5364 7.42146 24.4567 7.47153L15.141 13.9515C14.3875 14.4192 13.5183 14.6671 12.6315 14.6671C11.7447 14.6671 10.8755 14.4192 10.122 13.9515L0.806312 7.47363C0.726624 7.42357 0.634968 7.39578 0.540893 7.39318C0.446818 7.39057 0.353765 7.41324 0.271427 7.45881C0.189088 7.50439 0.120477 7.57121 0.0727382 7.65231C0.0249999 7.73342 -0.000117801 7.82583 4.15369e-07 7.91995V16.842C4.15369e-07 17.6795 0.332704 18.4827 0.924921 19.075C1.51714 19.6672 2.32036 19.9999 3.15788 19.9999Z" fill="#8F9DB8"/>
<path d="M11.7894 11.2736C12.0403 11.4296 12.3298 11.5122 12.6252 11.5122C12.9206 11.5122 13.2101 11.4296 13.461 11.2736L25.183 3.29051C25.2066 3.27713 25.2264 3.25791 25.2404 3.23468C25.2544 3.21144 25.2622 3.18499 25.263 3.15788C25.263 2.32036 24.9303 1.51714 24.3381 0.92492C23.7459 0.332703 22.9427 0 22.1051 0H3.15788C2.32036 0 1.51714 0.332703 0.924927 0.92492C0.33271 1.51714 6.4423e-06 2.32036 6.4423e-06 3.15788C-0.000237048 3.18447 0.00642545 3.21067 0.0193408 3.23392C0.0322562 3.25717 0.0509821 3.27666 0.0736899 3.29051L11.7894 11.2736Z" fill="#8F9DB8"/>
<path d="M3.15788 19.9999H22.1051C22.9427 19.9999 23.7459 19.6672 24.3381 19.075C24.9303 18.4827 25.263 17.6795 25.263 16.842V7.91784C25.2631 7.82373 25.238 7.73131 25.1903 7.65021C25.1425 7.5691 25.0739 7.50228 24.9916 7.4567C24.9092 7.41113 24.8162 7.38846 24.7221 7.39107C24.628 7.39368 24.5364 7.42146 24.4567 7.47153L15.141 13.9515C14.3875 14.4192 13.5183 14.6671 12.6315 14.6671C11.7447 14.6671 10.8755 14.4192 10.122 13.9515L0.806312 7.47363C0.726624 7.42357 0.634968 7.39578 0.540893 7.39318C0.446818 7.39057 0.353765 7.41324 0.271427 7.45881C0.189088 7.50439 0.120477 7.57121 0.0727382 7.65231C0.0249999 7.73342 -0.000117801 7.82583 4.15369e-07 7.91995V16.842C4.15369e-07 17.6795 0.332704 18.4827 0.924921 19.075C1.51714 19.6672 2.32036 19.9999 3.15788 19.9999Z" fill="#8F9DB8"/>
<path d="M11.7894 11.2736C12.0403 11.4296 12.3298 11.5122 12.6252 11.5122C12.9206 11.5122 13.2101 11.4296 13.461 11.2736L25.183 3.29051C25.2066 3.27713 25.2264 3.25791 25.2404 3.23468C25.2544 3.21144 25.2622 3.18499 25.263 3.15788C25.263 2.32036 24.9303 1.51714 24.3381 0.92492C23.7459 0.332703 22.9427 0 22.1051 0H3.15788C2.32036 0 1.51714 0.332703 0.924927 0.92492C0.33271 1.51714 6.4423e-06 2.32036 6.4423e-06 3.15788C-0.000237048 3.18447 0.00642545 3.21067 0.0193408 3.23392C0.0322562 3.25717 0.0509821 3.27666 0.0736899 3.29051L11.7894 11.2736Z" fill="#8F9DB8"/>
</svg>
