<svg width="22" height="22" viewBox="0 0 22 22" fill="none" xmlns="http://www.w3.org/2000/svg">
<path d="M17.2792 12.836C16.6281 12.1868 15.7461 11.8223 14.8266 11.8223C13.9071 11.8223 13.0252 12.1868 12.374 12.836L11.4521 13.7591C10.7366 14.3553 10.2127 15.1491 9.94579 16.0413C9.67891 16.9336 9.6809 17.8847 9.95151 18.7758C6.92092 17.4944 4.50881 15.0827 3.22692 12.0523C4.118 12.3234 5.06924 12.3256 5.96158 12.0587C6.85391 11.7918 7.64771 11.2676 8.2436 10.5518L9.1689 9.62757C9.81809 8.97642 10.1826 8.09445 10.1826 7.17497C10.1826 6.25549 9.81809 5.37352 9.1689 4.72237L5.1667 0.729085C4.87606 0.438567 4.51805 0.224481 4.12459 0.105915C3.73112 -0.0126515 3.31443 -0.0320133 2.91167 0.0495549C2.50891 0.131123 2.13259 0.311087 1.81626 0.573401C1.49993 0.835715 1.25343 1.17223 1.09873 1.55294C-0.00450195 4.25847 -0.284671 7.22943 0.293329 10.0935C0.871329 12.9576 2.28178 15.5874 4.34794 17.6533C6.41409 19.7192 9.04403 21.1293 11.9082 21.707C14.7723 22.2847 17.7432 22.0042 20.4486 20.9006C20.8292 20.7457 21.1655 20.499 21.4276 20.1826C21.6896 19.8661 21.8694 19.4898 21.9507 19.087C22.032 18.6843 22.0125 18.2677 21.8938 17.8743C21.775 17.481 21.5608 17.1231 21.2703 16.8327L17.2792 12.836Z" fill="#8F9DB8"/>
</svg>
